<?xml version="1.0" encoding="utf-8"?>
<!-- Generator: Adobe Illustrator 22.1.0, SVG Export Plug-In . SVG Version: 6.00 Build 0)  -->
<svg version="1.1" id="图层_1" xmlns="http://www.w3.org/2000/svg" xmlns:xlink="http://www.w3.org/1999/xlink" x="0px" y="0px"
	 viewBox="0 0 365 130" style="enable-background:new 0 0 365 130;" xml:space="preserve">
<style type="text/css">
	.st0{fill:#1649DC;}
</style>
<g>
	<g>
		<path class="st0" d="M0.6,98.6c25.6-6,51.7-10.7,78.1-14.2c4.8-0.6,9.6-1.2,14.5-1.7V32.1l20.2-0.1c0.8,0,1.4-0.7,1.4-1.4V18.9
			c0-0.8-0.6-1.4-1.4-1.4l-54.9,0.1c-0.8,0-1.4,0.7-1.4,1.4v11.6c0,0.8,0.6,1.4,1.4,1.4h20.2v43.4C51.9,81.1,25.8,88.9,0.6,98.6z"/>
	</g>
	<g>
		<path class="st0" d="M304.6,79.7c2.2-3.4,3.4-7.3,3.4-11.6c0-11.9-9.7-21.7-21.7-21.7H272c-4,0-7.2-3.3-7.2-7.2
			c0-4,3.2-7.2,7.2-7.2h16.9c0,0,0.1,0,0.1,0h8.7c1.6,0,2.9-1.3,2.9-2.9v-8.7c0-1.6-1.3-2.9-2.9-2.9h-3.1c0,0,0,0,0,0H272
			c-13.4,0-24.1,12.3-21.2,26.2c2.1,10.2,11.7,17.1,22.1,17.1h13.5c4,0,7.2,3.2,7.2,7.2c0,4-3.2,7.2-7.2,7.2h-34.6
			c-0.8,0-1.4,0.6-1.4,1.4v3.9c16.2,1.3,32.2,3.2,48.1,5.5c22.4,3.3,44.4,7.5,66.2,12.5C345.1,91.1,325.1,84.7,304.6,79.7z"/>
	</g>
	<g>
		<path class="st0" d="M240.7,79.9l-5.7-12.4l-4.1-8.9C238,55,243,47.7,243,39.1c0-11.9-9.7-21.7-21.7-21.7h-20.7v0c0,0-0.1,0-0.1,0
			h-11.5c-0.8,0-1.5,0.7-1.5,1.5v45.8c-1.6,0-3.2,0-4.9,0c-2.5,0-5,0-7.5,0.1l-18.3-46.4c-0.2-0.5-0.8-0.9-1.4-0.9h-14.7
			c-0.6,0-1.2,0.3-1.3,0.9l-19.8,50.3l-4.7,11.9c5.3-0.4,10.6-0.9,16-1.2l5-12.6l10.8-27.5l1.4-3.6l0.8,2.1l0.6,1.4v0l10.2,25.8
			l5.1,12.8c5.1-0.1,10.3-0.2,15.4-0.2h2.4c1.6,0,3.3,0,4.9,0c4.8,0,9.6,0,14.5,0.2V31.9h19.4c4,0,7.2,3.2,7.2,7.2
			c0,3.7-2.8,6.7-6.4,7.2l-10.6,0h-0.1c-0.8,0-1.4,0.7-1.4,1.4c0,0.2,0,0.4,0.1,0.6l8.2,17.6l6,12.9
			C229.7,79.1,235.2,79.4,240.7,79.9z"/>
	</g>
	<g>
		<path class="st0" d="M306.3,14.5h8.7c1.6,0,2.9-1.3,2.9-2.9V2.9c0-1.6-1.3-2.9-2.9-2.9h-8.7c-1.6,0-2.9,1.3-2.9,2.9v8.7
			C303.4,13.2,304.7,14.5,306.3,14.5z"/>
	</g>
	<g>
		<rect x="85.2" y="113" class="st0" width="2.2" height="2.3"/>
	</g>
	<g>
		<rect x="85.2" y="117.1" class="st0" width="2.2" height="11.1"/>
	</g>
	<g>
		<path class="st0" d="M93.8,113h-2.2v4.1h-2.1v1.8h2.1v6c0,0.7,0.1,1.3,0.2,1.7c0.1,0.4,0.3,0.7,0.6,1c0.3,0.3,0.6,0.4,0.9,0.5
			c0.4,0.1,0.9,0.1,1.6,0.1H97v-1.8h-1.3c-0.8,0-1.4-0.1-1.6-0.3c-0.1-0.1-0.2-0.3-0.3-0.5c0-0.2-0.1-0.5-0.1-1v-5.9H97v-1.8h-3.3
			V113z"/>
	</g>
	<g>
		<path class="st0" d="M107.6,118.1c-0.4-0.4-0.9-0.6-1.5-0.8c-0.6-0.2-1.4-0.2-2.4-0.2h-2.6V113h-2.2v15.2h2.2v-9.4h2.6
			c1.1,0,1.9,0.2,2.3,0.6c0.4,0.4,0.6,1.2,0.6,2.3v6.5h2.2v-6.3c0-1-0.1-1.9-0.3-2.4C108.3,118.9,108,118.5,107.6,118.1z"/>
	</g>
	<g>
		<path class="st0" d="M119,126.5h-2.5c-1.3,0-2.1-0.3-2.4-0.9c-0.2-0.4-0.3-1-0.3-2v-6.5h-2.2v6.6c0,1.2,0.2,2.1,0.5,2.8
			c0.3,0.6,0.8,1.1,1.5,1.4c0.3,0.1,0.7,0.2,1.1,0.3c0.4,0,0.9,0.1,1.7,0.1h4.9v-11.1H119V126.5z"/>
	</g>
	<g>
		<path class="st0" d="M132.1,117.4c-0.5-0.2-1.3-0.3-2.4-0.3h-3.1V113h-2.2v15.2h4.4c1.3,0,2.3-0.1,3-0.3c0.7-0.2,1.2-0.6,1.7-1.1
			c0.8-1,1.2-2.4,1.2-4.3c0-1.2-0.2-2.3-0.6-3.1C133.6,118.4,132.9,117.8,132.1,117.4z M131.9,125.4c-0.2,0.4-0.6,0.7-1,0.8
			c-0.4,0.2-1,0.3-1.7,0.3h-2.6v-7.6h2.7c1.1,0,1.9,0.3,2.4,0.9c0.5,0.6,0.7,1.6,0.7,2.9C132.4,123.8,132.2,124.7,131.9,125.4z"/>
	</g>
	<g>
		<rect x="136.7" y="125.7" class="st0" width="2.3" height="2.5"/>
	</g>
	<g>
		<path class="st0" d="M144.2,117.4c-0.6,0.2-1.2,0.6-1.7,1.1c-1,1.1-1.5,2.5-1.5,4.3c0,1,0.2,1.9,0.5,2.7c0.5,1.2,1.3,2,2.4,2.3
			c0.6,0.2,1.6,0.3,2.7,0.3h3.5v-1.8h-3.5c-1.2,0-2-0.2-2.4-0.7c-0.6-0.6-0.9-1.7-0.9-3.1c0-1.2,0.2-2.1,0.7-2.8
			c0.3-0.4,0.6-0.6,1-0.8s1-0.2,1.7-0.2h3.5v-1.8h-3.5C145.7,117.1,144.8,117.2,144.2,117.4z"/>
	</g>
	<g>
		<path class="st0" d="M157.6,117c-2,0-3.4,0.6-4.4,1.6c-1,1.1-1.4,2.5-1.4,4.3c0,1.7,0.4,3,1.3,3.9c1,1.1,2.5,1.6,4.4,1.6
			c1.8,0,3.3-0.5,4.3-1.6c0.9-1,1.4-2.4,1.4-4.1c0-1.8-0.5-3.2-1.4-4.2C160.8,117.5,159.4,117,157.6,117z M157.5,126.5
			c-1.1,0-2-0.4-2.6-1.1c-0.5-0.6-0.7-1.5-0.7-2.7c0-1.3,0.3-2.2,0.9-2.9c0.6-0.7,1.4-1,2.5-1c1.1,0,1.9,0.4,2.5,1
			c0.6,0.7,0.9,1.7,0.9,2.9C160.9,125.3,159.8,126.5,157.5,126.5z"/>
	</g>
	<g>
		<path class="st0" d="M179.5,117.9c-0.4-0.3-0.8-0.6-1.3-0.7c-0.5-0.1-1.4-0.1-2.7-0.1h-9.8v11.1h2.2v-9.4h4.1v9.4h2.2v-9.4h1.7
			c0.9,0,1.6,0.2,2,0.6c0.4,0.4,0.6,1,0.6,2v6.9h2.2v-6.9c0-1-0.1-1.7-0.2-2.2C180.2,118.6,179.9,118.2,179.5,117.9z"/>
	</g>
	<g>
		<polygon class="st0" points="183.8,130 185.7,130 191.7,111.2 189.7,111.2 		"/>
	</g>
	<g>
		<polygon class="st0" points="207.8,113 194.8,113 194.8,114.9 200.1,114.9 200.1,128.2 202.5,128.2 202.5,114.9 207.8,114.9 		"/>
	</g>
	<g>
		<path class="st0" d="M216.4,118.1c-0.3-0.4-0.7-0.6-1.3-0.8c-0.5-0.2-1.3-0.2-2.3-0.2h-5.7v1.8h5.2c1.1,0,1.8,0.1,2.1,0.4
			c0.3,0.3,0.4,1,0.4,2.1h-4c-1.3,0-2.3,0.2-2.8,0.5c-0.4,0.3-0.8,0.7-1,1.2c-0.2,0.5-0.4,1.1-0.4,1.7c0,0.9,0.2,1.6,0.7,2.2
			c0.5,0.6,1.1,0.9,2,1.1c0.4,0.1,1.1,0.1,2.1,0.1h5.6v-7c0-0.8,0-1.5-0.1-1.9C216.8,118.8,216.7,118.4,216.4,118.1z M214.9,126.5
			h-3.7c-0.8,0-1.4-0.1-1.7-0.4c-0.3-0.2-0.5-0.7-0.5-1.3c0-0.7,0.3-1.2,0.8-1.5c0.3-0.1,0.8-0.2,1.4-0.2h3.7V126.5z"/>
	</g>
	<g>
		<path class="st0" d="M237.8,122.1c-0.3-0.2-0.5-0.3-0.8-0.3c-0.3,0-1-0.1-2.3-0.1h-1.5c-0.9,0-1.5-0.1-1.8-0.3
			c-0.3-0.2-0.4-0.5-0.4-1.1c0-0.6,0.1-1,0.4-1.3c0.1-0.1,0.3-0.2,0.5-0.3c0.2,0,0.7,0,1.5,0h5v-1.8h-5.6c-1.2,0-2.1,0.1-2.7,0.4
			c-0.5,0.2-0.8,0.6-1.1,1.1c-0.3,0.5-0.4,1.1-0.4,1.7c0,1.2,0.4,2.1,1.2,2.8c0.3,0.3,0.7,0.4,1.1,0.5c0.4,0.1,1.2,0.1,2.4,0.1h0.9
			c0.9,0,1.4,0,1.6,0.1c0.5,0.1,0.7,0.5,0.7,1.2c0,0.7-0.2,1.1-0.5,1.3c-0.2,0.1-0.9,0.1-1.9,0.1h-5.4v1.8h5.9c0.9,0,1.5,0,1.8-0.1
			c0.4,0,0.7-0.1,0.9-0.3c1-0.5,1.4-1.5,1.4-3C239,123.5,238.6,122.6,237.8,122.1z"/>
	</g>
	<g>
		<path class="st0" d="M244.1,113.6c-0.9,0.4-1.7,1.2-2.3,2.4c-0.7,1.4-1.1,2.9-1.1,4.7c0,1.5,0.3,2.8,0.8,4
			c0.8,1.7,1.9,2.7,3.5,3.2c0.8,0.2,1.9,0.3,3.2,0.3h4.7v-1.9h-4.5c-1.1,0-1.9-0.1-2.4-0.3c-0.5-0.2-1-0.5-1.4-0.9
			c-0.9-1-1.3-2.4-1.3-4.3c0-1,0.1-1.9,0.3-2.8c0.2-0.8,0.5-1.5,0.9-2c0.4-0.4,0.8-0.7,1.3-0.9c0.5-0.2,1.3-0.2,2.3-0.2h4.7V113
			h-4.9C246.3,113,245,113.2,244.1,113.6z"/>
	</g>
	<g>
		<rect x="255.3" y="113" class="st0" width="2.2" height="15.2"/>
	</g>
	<g>
		<path class="st0" d="M265.7,117c-2,0-3.4,0.6-4.4,1.6c-1,1.1-1.4,2.5-1.4,4.3c0,1.7,0.4,3,1.3,3.9c1,1.1,2.5,1.6,4.4,1.6
			c1.8,0,3.3-0.5,4.3-1.6c0.9-1,1.4-2.4,1.4-4.1c0-1.8-0.5-3.2-1.4-4.2C268.9,117.5,267.5,117,265.7,117z M265.5,126.5
			c-1.1,0-2-0.4-2.6-1.1c-0.5-0.6-0.7-1.5-0.7-2.7c0-1.3,0.3-2.2,0.9-2.9c0.6-0.7,1.4-1,2.5-1c1.1,0,1.9,0.4,2.5,1
			c0.6,0.7,0.9,1.7,0.9,2.9C269,125.3,267.8,126.5,265.5,126.5z"/>
	</g>
	<g>
		<path class="st0" d="M280.9,126.5h-2.5c-1.3,0-2.1-0.3-2.4-0.9c-0.2-0.4-0.3-1-0.3-2v-6.5h-2.2v6.6c0,1.2,0.2,2.1,0.5,2.8
			c0.3,0.6,0.8,1.1,1.5,1.4c0.3,0.1,0.7,0.2,1.1,0.3c0.4,0,0.9,0.1,1.7,0.1h4.9v-11.1h-2.2V126.5z"/>
	</g>
	<g>
		<path class="st0" d="M293.7,117.1h-2.6c-1.3,0-2.4,0.2-3.2,0.6c-0.8,0.4-1.4,1.1-1.8,2c-0.4,1-0.7,2-0.7,3.2
			c0,0.9,0.1,1.8,0.4,2.6c0.3,0.8,0.7,1.4,1.2,1.8c0.4,0.4,0.9,0.6,1.5,0.8c0.6,0.1,1.4,0.2,2.3,0.2h4.9V113h-2.2V117.1z
			 M293.7,126.5h-2.7c-1.1,0-1.9-0.3-2.4-0.9c-0.5-0.6-0.7-1.6-0.7-3c0-1.1,0.2-2,0.6-2.7c0.3-0.4,0.6-0.7,1.1-0.9
			c0.4-0.2,1-0.3,1.8-0.3h2.4V126.5z"/>
	</g>
	<g>
		<path class="st0" d="M221.5,118.8c-1,0.9-1.5,2.2-1.5,3.8v5.7h2.4v-5.7c0-0.9,0.2-1.5,0.7-2c0.8-0.7,2.3-0.8,2.8-0.8v-2.4
			C225.6,117.4,223.2,117.2,221.5,118.8z"/>
	</g>
	<g>
		<path class="st0" d="M74,113.2c-0.7,0.1-1.4,0.4-1.9,0.7c-1.9,1.1-2.8,3.4-2.8,6.7c0,2.3,0.5,4.1,1.4,5.3c0.7,0.9,1.6,1.5,2.6,1.9
			c0.8,0.3,2,0.4,3.5,0.4h5.6v-8.7H80v1.9v1.9v3h-2.9c-1.3,0-2.2-0.1-2.8-0.4c-0.6-0.2-1.1-0.7-1.5-1.3c-0.3-0.5-0.6-1.1-0.7-1.7
			c-0.1-0.6-0.2-1.4-0.2-2.4c0-2.5,0.6-4.2,1.9-5c0.4-0.2,0.8-0.4,1.2-0.5c0.4-0.1,1.1-0.1,2.1-0.1h5.3V113h-5.5
			C75.7,113,74.7,113,74,113.2z"/>
	</g>
</g>
</svg>
