<?xml version="1.0" encoding="utf-8"?>
<!-- Generator: Adobe Illustrator 22.1.0, SVG Export Plug-In . SVG Version: 6.00 Build 0)  -->
<svg version="1.1" id="图层_1" xmlns="http://www.w3.org/2000/svg" xmlns:xlink="http://www.w3.org/1999/xlink" x="0px" y="0px"
	 viewBox="0 0 365 100" style="enable-background:new 0 0 365 100;" xml:space="preserve">
<style type="text/css">
	.st0{fill:#1649DC;}
</style>
<g>
	<g>
		<path class="st0" d="M0.6,99.1c25.6-6,51.7-10.7,78.1-14.2c4.8-0.6,9.6-1.2,14.5-1.7V32.6l20.2-0.1c0.8,0,1.4-0.7,1.4-1.4V19.4
			c0-0.8-0.6-1.4-1.4-1.4l-54.9,0.1c-0.8,0-1.4,0.7-1.4,1.4v11.6c0,0.8,0.6,1.4,1.4,1.4h20.2v43.4C51.9,81.6,25.8,89.4,0.6,99.1z"/>
	</g>
	<g>
		<path class="st0" d="M304.6,80.2c2.2-3.4,3.4-7.3,3.4-11.6c0-11.9-9.7-21.7-21.7-21.7H272c-4,0-7.2-3.3-7.2-7.2
			c0-4,3.2-7.2,7.2-7.2h16.9c0,0,0.1,0,0.1,0h8.7c1.6,0,2.9-1.3,2.9-2.9v-8.7c0-1.6-1.3-2.9-2.9-2.9h-3.1c0,0,0,0,0,0H272
			c-13.4,0-24.1,12.3-21.2,26.2c2.1,10.2,11.7,17.1,22.1,17.1h13.5c4,0,7.2,3.2,7.2,7.2c0,4-3.2,7.2-7.2,7.2h-34.6
			c-0.8,0-1.4,0.6-1.4,1.4v3.9c16.2,1.3,32.2,3.2,48.1,5.5c22.4,3.3,44.4,7.5,66.2,12.5C345.1,91.6,325.1,85.2,304.6,80.2z"/>
	</g>
	<g>
		<path class="st0" d="M240.7,80.4l-5.7-12.4l-4.1-8.9C238,55.5,243,48.2,243,39.6c0-11.9-9.7-21.7-21.7-21.7h-20.7v0
			c0,0-0.1,0-0.1,0h-11.5c-0.8,0-1.5,0.7-1.5,1.5v45.8c-1.6,0-3.2,0-4.9,0c-2.5,0-5,0-7.5,0.1l-18.3-46.4c-0.2-0.5-0.8-0.9-1.4-0.9
			h-14.7c-0.6,0-1.2,0.3-1.3,0.9l-19.8,50.3l-4.7,11.9c5.3-0.4,10.6-0.9,16-1.2l5-12.6l10.8-27.5l1.4-3.6l0.8,2.1l0.6,1.4v0
			l10.2,25.8l5.1,12.8c5.1-0.1,10.3-0.2,15.4-0.2h2.4c1.6,0,3.3,0,4.9,0c4.8,0,9.6,0,14.5,0.2V32.4h19.4c4,0,7.2,3.2,7.2,7.2
			c0,3.7-2.8,6.7-6.4,7.2l-10.6,0h-0.1c-0.8,0-1.4,0.7-1.4,1.4c0,0.2,0,0.4,0.1,0.6l8.2,17.6l6,12.9
			C229.7,79.6,235.2,79.9,240.7,80.4z"/>
	</g>
	<g>
		<path class="st0" d="M306.3,15h8.7c1.6,0,2.9-1.3,2.9-2.9V3.4c0-1.6-1.3-2.9-2.9-2.9h-8.7c-1.6,0-2.9,1.3-2.9,2.9v8.7
			C303.4,13.7,304.7,15,306.3,15z"/>
	</g>
</g>
</svg>
